<?xml version="1.0" encoding="iso-8859-1"?>
<!-- Uploaded to: SVG Repo, www.svgrepo.com, Generator: SVG Repo Mixer Tools -->
<svg height="800px" width="800px" version="1.1" id="Layer_1" xmlns="http://www.w3.org/2000/svg" xmlns:xlink="http://www.w3.org/1999/xlink" 
	 viewBox="0 0 512.16 512.16" xml:space="preserve">
<g transform="translate(0 1)">
	<g>
		<path style="fill:#FFDD09;" d="M486.4,259.347l4.267,6.827l12.8-133.12c1.707-13.653-8.533-26.453-23.04-28.16l-28.16-2.56v174.08
			C476.16,273,486.4,259.347,486.4,259.347"/>
		<path style="fill:#FFDD09;" d="M317.44,353.213H34.133H33.28l-0.853,4.267c-1.707,13.653,8.533,26.453,23.04,28.16l273.92,30.72
			C317.44,395.88,313.173,370.28,317.44,353.213"/>
	</g>
	<path style="fill:#FD9808;" d="M317.44,352.36c3.413-13.653,7.68-25.6,7.68-27.307c5.973-24.747-9.387-40.107-9.387-40.107
		l17.067-25.6c0,0,11.947,17.067,42.667,17.067s34.133-17.067,34.133-17.067s3.413,17.067,34.133,17.067
		c3.413,0,5.973,0,8.533-0.853V54.547c0-14.507-11.093-25.6-25.6-25.6H34.133c-14.507,0-25.6,11.093-25.6,25.6v273.067
		c0,14.507,11.093,25.6,25.6,25.6L317.44,352.36C317.44,353.213,317.44,352.36,317.44,352.36"/>
	<path style="fill:#FFDD09;" d="M308.907,352.36c3.413-13.653,6.827-25.6,7.68-27.307c5.12-24.747-9.387-40.107-9.387-40.107
		l16.213-25.6c0,0,11.093,17.067,40.107,17.067c29.013,0,32.427-17.067,32.427-17.067s-5.973,17.067,23.04,17.067
		c2.56,0,5.12,0,7.68-0.853V54.547c0-14.507-11.093-25.6-23.893-25.6H32.427c-12.8,0-23.893,11.093-23.893,25.6v273.067
		c0,14.507,11.093,25.6,23.893,25.6L308.907,352.36C308.907,353.213,308.907,352.36,308.907,352.36"/>
	<path style="fill:#33A9F8;" d="M409.6,259.347c0,0,3.413,17.067,34.133,17.067s42.667-17.067,42.667-17.067l17.067,25.6
		c0,0-15.36,15.36-9.387,40.107c0,1.707,4.267,13.653,7.68,27.307c6.827,24.747-5.12,69.973-36.693,88.747c0,0,0,0-0.853,0
		l-6.827,3.413c0,0-47.787,20.48-47.787,35.84c0-15.36-47.787-35.84-47.787-35.84l-6.827-3.413c0,0,0,0-0.853,0
		c-31.573-18.773-43.52-64-36.693-88.747c3.413-13.653,7.68-25.6,7.68-27.307c5.973-24.747-9.387-40.107-9.387-40.107l17.067-25.6
		c0,0,11.947,17.067,42.667,17.067S409.6,259.347,409.6,259.347"/>
	<path style="fill:#54C9FD;" d="M409.6,259.347c0,0-5.12,17.067,19.627,17.067c24.747,0,40.107-8.533,40.107-8.533l8.533,17.067
		c0,0-11.947,15.36-7.68,40.107c0,1.707,3.413,13.653,6.827,27.307c5.973,24.747-4.267,69.973-29.867,88.747c0,0,0,0-0.853,0
		l-5.973,3.413c0,0-30.72,20.48-30.72,35.84c0-15.36-46.933-35.84-46.933-35.84l-5.973-3.413c0,0,0,0-0.853,0
		c-25.6-18.773-35.84-64-29.867-88.747c2.56-13.653,5.973-25.6,6.827-27.307c3.413-24.747-8.533-40.107-8.533-40.107l13.653-25.6
		c0,0,10.24,17.067,34.987,17.067C398.507,276.413,409.6,259.347,409.6,259.347"/>
	<polygon style="fill:#FFDD09;" points="409.6,310.547 426.667,344.68 460.8,344.68 436.907,376.253 443.733,412.947 409.6,396.733 
		375.467,412.947 382.293,376.253 358.4,344.68 392.533,344.68 	"/>
	<path style="fill:#1CD759;" d="M315.733,284.947l17.067-25.6c0,0,11.947,17.067,42.667,17.067s34.133-17.067,34.133-17.067l0,0
		v-34.133H273.067v76.8h51.2C321.707,290.92,315.733,284.947,315.733,284.947"/>
	<polygon style="fill:#15A143;" points="8.533,139.88 452.267,139.88 452.267,71.613 8.533,71.613 	"/>
	<polygon style="fill:#1CD759;" points="8.533,139.88 426.667,139.88 426.667,71.613 8.533,71.613 	"/>
	<path d="M409.6,489.747c-5.12,0-8.533-4.267-8.533-8.533c-0.853-5.12-21.333-18.773-42.667-28.16l-7.68-3.413l-0.853-0.853
		c-33.28-20.48-48.64-68.267-40.107-98.987c2.56-8.533,4.267-16.213,5.973-21.333c0.853-2.56,1.707-5.12,1.707-5.12
		c4.267-19.627-7.68-32.427-7.68-32.427c-2.56-2.56-3.413-7.68-0.853-10.24l17.067-25.6c1.707-2.56,4.267-3.413,6.827-3.413
		s5.12,1.707,6.827,3.413c0,0.853,10.24,13.653,35.84,13.653c22.187,0,25.6-10.24,25.6-10.24c0.853-3.413,5.12-6.827,8.533-5.973
		c3.413,0,6.827,2.56,7.68,5.973c0,0.853,4.267,10.24,25.6,10.24c25.6,0,34.987-12.8,35.84-13.653
		c1.707-2.56,4.267-3.413,6.827-3.413c2.56,0,5.12,1.707,6.827,3.413l17.067,25.6c2.56,3.413,1.707,7.68-0.853,10.24
		c-0.853,0.853-11.947,12.8-7.68,32.427c0,0.853,0.853,2.56,1.707,5.12c1.707,5.12,4.267,12.8,5.973,21.333
		c8.533,29.867-7.68,78.507-40.107,98.987l-1.707,0.853l-5.973,3.413c-21.333,9.387-41.813,23.04-42.667,28.16l0,0
		C418.133,486.333,413.867,489.747,409.6,489.747z M325.973,284.947c5.12,7.68,11.947,23.04,7.68,42.667
		c0,0.853-0.853,3.413-1.707,6.827c-1.707,5.12-4.267,12.8-5.973,21.333c-5.973,20.48,4.267,62.293,33.28,79.36l6.827,3.413
		c11.093,4.267,31.573,14.507,43.52,26.453c11.947-11.947,33.28-22.187,44.373-26.453l6.827-3.413
		c29.013-17.067,38.4-58.88,33.28-79.36c-2.56-7.68-4.267-16.213-5.973-21.333c-1.707-4.267-2.56-6.827-2.56-6.827
		c-4.267-19.627,2.56-34.987,7.68-42.667L484.693,273c-7.68,5.12-21.333,11.947-40.96,11.947c-17.92,0-28.16-5.12-34.133-11.093
		c-5.973,5.12-16.213,11.093-34.133,11.093c-20.48,0-33.28-6.827-40.96-12.8L325.973,284.947z"/>
	<path d="M452.267,148.413H8.533C3.413,148.413,0,145,0,139.88V71.613c0-5.12,3.413-8.533,8.533-8.533h443.733
		c5.12,0,8.533,3.413,8.533,8.533v68.267C460.8,145,457.387,148.413,452.267,148.413z M17.067,131.347h426.667v-51.2H17.067V131.347
		z"/>
	<path d="M110.933,199.613H42.667c-5.12,0-8.533-3.413-8.533-8.533c0-5.12,3.413-8.533,8.533-8.533h68.267
		c5.12,0,8.533,3.413,8.533,8.533C119.467,196.2,116.053,199.613,110.933,199.613z"/>
	<path d="M213.333,199.613h-68.267c-5.12,0-8.533-3.413-8.533-8.533c0-5.12,3.413-8.533,8.533-8.533h68.267
		c5.12,0,8.533,3.413,8.533,8.533C221.867,196.2,218.453,199.613,213.333,199.613z"/>
	<path d="M153.6,233.747H42.667c-5.12,0-8.533-3.413-8.533-8.533c0-5.12,3.413-8.533,8.533-8.533H153.6
		c5.12,0,8.533,3.413,8.533,8.533C162.133,230.333,158.72,233.747,153.6,233.747z"/>
	<path d="M213.333,233.747h-25.6c-5.12,0-8.533-3.413-8.533-8.533c0-5.12,3.413-8.533,8.533-8.533h25.6
		c5.12,0,8.533,3.413,8.533,8.533C221.867,230.333,218.453,233.747,213.333,233.747z"/>
	<path d="M452.267,284.093c-1.707,0-4.267-0.853-5.973-2.56c-1.707-1.707-2.56-4.267-2.56-5.973V102.333
		c0-2.56,0.853-5.12,2.56-5.973c1.707-1.707,4.267-2.56,6.827-1.707l28.16,3.413c9.387,0.853,17.067,5.12,23.04,12.8
		c5.973,6.827,8.533,16.213,7.68,24.747l-11.947,133.12c0,3.413-2.56,6.827-6.827,7.68c-2.56,0.853-5.973,0-8.533-2.56
		c-6.827,5.12-12.8,7.68-27.307,9.387C457.387,281.533,452.267,284.093,452.267,284.093z M460.8,111.72v153.6
		c12.8-3.413,18.773-11.093,18.773-11.093c0.853-1.707,2.56-2.56,4.267-2.56L494.933,132.2c0.853-4.267-0.853-9.387-3.413-12.8
		c-2.56-3.413-6.827-5.973-11.093-5.973L460.8,111.72z"/>
	<path d="M329.387,424.893L329.387,424.893l-274.773-30.72c-18.773-1.707-32.427-18.773-29.867-37.547l0.853-4.267
		c0.853-4.267,4.267-7.68,8.533-7.68c0,0,0.853,0,1.707,0h282.453c2.56,0,5.12,0.853,6.827,3.413c1.707,1.707,2.56,5.12,1.707,7.68
		c-4.267,15.36,0.853,39.253,11.093,56.32c1.707,2.56,1.707,5.973,0,9.387C335.36,423.187,332.8,424.893,329.387,424.893z
		 M41.813,361.747c0.853,7.68,6.827,14.507,15.36,15.36l258.56,29.013c-5.973-14.507-8.533-30.72-7.68-44.373H41.813z"/>
	<path d="M317.44,361.747H34.133C15.36,361.747,0,346.387,0,327.613V54.547c0-18.773,15.36-34.133,34.133-34.133h392.533
		c18.773,0,34.133,15.36,34.133,34.133V275.56c0,4.267-3.413,7.68-7.68,8.533c-2.56,0.853-5.973,0.853-9.387,0.853
		c-17.92,0-28.16-5.12-34.133-11.093c-5.973,5.12-16.213,11.093-34.133,11.093c-20.48,0-33.28-6.827-40.96-12.8l-8.533,11.947
		c5.12,7.68,11.947,23.04,7.68,42.667c0,0.853-0.853,3.413-1.707,6.827c-1.707,5.12-3.413,12.8-5.973,20.48v0.853
		C324.267,359.187,320.853,361.747,317.44,361.747z M34.133,37.48c-9.387,0-17.067,7.68-17.067,17.067v273.067
		c0,9.387,7.68,17.067,17.067,17.067h276.48c1.707-5.973,3.413-11.093,4.267-15.36c0.853-2.56,1.707-5.12,1.707-5.973
		c4.267-19.627-7.68-32.427-7.68-32.427c-2.56-2.56-3.413-7.68-0.853-10.24l17.067-25.6c1.707-2.56,4.267-3.413,6.827-3.413
		s5.12,1.707,6.827,3.413c0,0.853,10.24,13.653,35.84,13.653c22.187,0,25.6-10.24,25.6-10.24c0.853-3.413,5.12-6.827,8.533-5.973
		c4.267,0,6.827,2.56,7.68,6.827c0,0,3.413,10.24,25.6,10.24l0,0V54.547c0-9.387-7.68-17.067-17.067-17.067H34.133z"/>
	<path d="M325.12,310.547h-52.053c-5.12,0-8.533-3.413-8.533-8.533v-76.8c0-5.12,3.413-8.533,8.533-8.533H409.6
		c5.12,0,8.533,3.413,8.533,8.533v34.133c0,1.707,0,2.56-0.853,4.267c-2.56,5.973-11.947,21.333-41.813,21.333
		c-20.48,0-33.28-6.827-40.96-12.8l-8.533,11.947c2.56,3.413,5.12,8.533,6.827,15.36c0.853,2.56,0,5.12-1.707,7.68
		C330.24,309.693,327.68,310.547,325.12,310.547z M281.6,293.48h29.867c-0.853-1.707-1.707-2.56-1.707-2.56
		c-2.56-2.56-3.413-7.68-0.853-10.24l17.067-25.6c1.707-2.56,4.267-3.413,6.827-3.413s5.12,1.707,6.827,3.413
		c0,0.853,10.24,13.653,35.84,13.653c19.627,0,24.747-7.68,25.6-10.24v-24.747H281.6V293.48z"/>
	<path d="M443.733,421.48c-0.853,0-2.56,0-3.413-0.853L409.6,406.12l-30.72,14.507c-2.56,1.707-5.973,0.853-8.533-0.853
		c-2.56-1.707-3.413-5.12-3.413-8.533l5.973-32.427L351.573,349.8c-1.707-2.56-2.56-5.973-0.853-8.533s4.267-5.12,7.68-5.12h29.013
		l14.507-29.013c2.56-5.973,12.8-5.973,15.36,0l14.507,29.013H460.8c3.413,0,5.973,1.707,7.68,5.12
		c1.707,3.413,0.853,5.973-0.853,8.533l-21.333,29.013l5.973,32.427c0.853,3.413-0.853,6.827-3.413,8.533
		C447.147,420.627,445.44,421.48,443.733,421.48z M409.6,388.2c0.853,0,2.56,0,3.413,0.853l18.773,9.387l-3.413-19.627
		c-0.853-2.56,0-5.12,1.707-6.827l13.653-18.773h-17.067c-3.413,0-5.973-1.707-7.68-5.12l-9.387-17.92l-9.387,18.773
		c-0.853,2.56-4.267,4.267-7.68,4.267h-17.067l13.653,17.92c1.707,1.707,1.707,4.267,1.707,6.827l-3.413,19.627l18.773-9.387
		C407.04,388.2,408.747,388.2,409.6,388.2z"/>
</g>
</svg>